<?xml version="1.0" encoding="UTF-8"?>
<svg xmlns="http://www.w3.org/2000/svg" id="Layer_1" width="152.9" height="40.4" version="1.1" viewBox="0 0 152.9 40.4">
  <defs>
    <style>
      .st0 {
        fill: #58595b;
      }
    </style>
  </defs>
  <path id="A" class="st0" d="M54.2,12.8v17.2h-16.9c-2.1,0-3.8-1.7-3.8-3.8v-6.1c0-2.1,1.7-3.8,3.8-3.8h10.9s0-2.3,0-2.3c0-.8-.7-1.5-1.5-1.5h-9.1v-4.9h11.3c3,0,5.4,2.4,5.4,5.4ZM48.2,20.7h-8.5c-.5,0-1,.4-1,1v2.4c0,.5.4,1,1,1h8.5v-4.3Z"></path>
  <path id="N" class="st0" d="M130.8,30V7.5h15.7c3,0,5.4,2.4,5.4,5.4v17.2h-6V13.9c0-.8-.7-1.5-1.5-1.5h-7.5s0,17.6,0,17.6h-6Z"></path>
  <path id="O" class="st0" d="M113.6,7.5h6.2c6.6,0,8.1,6.6,8.1,11s-1.4,11.5-8.1,11.5h-6.2c-6.6,0-8.1-7.1-8.1-11.5s1.4-11,8.1-11ZM119.2,12.4h-5.1c-2.4,0-2.7,3.8-2.7,6.2s.2,6.5,2.7,6.5h5.1c2.5,0,2.7-4.2,2.7-6.5s-.3-6.2-2.7-6.2Z"></path>
  <path id="R" class="st0" d="M24.4,30V12.8c0-3,2.4-5.4,5.4-5.4h5.4s0,4.9,0,4.9h-3.8c-.5,0-.9.4-.9.9v16.7h-6Z"></path>
  <path id="T" class="st0" d="M87.1,2v5.4h4.3v4.9h-4.3v11.8c0,.5.4.9.9.9h3.5v4.9h-5c-3,0-5.4-2.4-5.4-5.4V2h6Z"></path>
  <path id="Y" class="st0" d="M78,7.5v25.6c0,3-2.4,5.4-5.4,5.4h-13.7v-4.9h11.5c.8,0,1.5-.7,1.5-1.5v-1.9h-9.3c-3,0-5.4-2.4-5.4-5.4V7.5s6,0,6,0v16.1c0,.8.7,1.5,1.5,1.5h7.1s0-17.6,0-17.6h6Z"></path>
  <path id="R1" data-name="R" class="st0" d="M94.5,30V12.8c0-3,2.4-5.4,5.4-5.4h6.4c.3,0,.4.3.3.5l-2.1,4.4h-3.1c-.5,0-.9.4-.9.9v16.7h-6Z"></path>
  <path id="B" class="st0" d="M1,2v27.9h15.4c3,0,5.4-2.4,5.4-5.4v-4.7c0-1.1-.6-2.2-1.5-2.9l-1.5-1.1,1.2-1.1c.8-.7,1.2-1.6,1.2-2.6v-4.9c0-3-2.4-5.4-5.4-5.4H1ZM14.1,25h-7.1v-6.6h7.1c.8,0,1.5.7,1.5,1.5v3.5c0,.8-.7,1.5-1.5,1.5ZM13.6,13.5h-6.6v-6.6h6.6c.8,0,1.5.7,1.5,1.5v3.5c0,.8-.7,1.5-1.5,1.5Z"></path>
</svg>
