<svg width="400" height="81" viewBox="0 0 400 81" xmlns="http://www.w3.org/2000/svg"><title>logo_navbar</title><g fill="none" fill-rule="evenodd"><path d="M35.01.05L17.505 10.11 0 20.172v40.236l17.504 10.06L35.011 80.53l17.504-10.063 17.504-10.06V20.173L52.515 10.11 35.01.05zm.671 4.35l26.268 15.097H26.925L35.681 4.4zm-5.304 2.28L12.868 36.865 4.112 21.773 30.377 6.68zm18.686 16.25h17.509v30.18l-17.51-30.18zm-5.914 0l-9.126 15.644H15.864l9.074-15.645h18.21zm-6.154 17.367l9.106-15.608 9.05 15.6-9.097 15.687-9.059-15.679zM3.45 27.496l17.49 30.155H3.45V27.496zm12.417 14.51H34.02l9.04 15.645H24.938l-9.071-15.644zm31.198 19.08h.008l10.07-17.364L65.9 58.814 39.626 73.911l7.44-12.826zm-3.981 0l-8.751 15.089-26.26-15.09h35.011z" fill="#FD0"/><path d="M49.064 22.928L66.571 53.11V22.928H49.064zm-1.997 38.157l-7.442 12.826 26.273-15.097-8.756-15.092-10.075 17.363zm-24.117 0H8.075l26.257 15.09 8.753-15.09H22.95zm-2.01-3.434L3.449 27.496v30.155h17.49zm13.082-15.644H15.866L24.94 57.65h18.122l-9.04-15.644zm12.08-17.32l-9.108 15.61 9.059 15.678 9.1-15.686-9.05-15.601zm-19.178-5.192h35.024L35.68 4.4l-8.756 15.095zm-1.984 3.433l-9.074 15.645h18.156l9.126-15.645H24.94zM12.867 36.865L30.377 6.68 4.11 21.773l8.756 15.092zm276.667 5.096l-3.468-10.74-3.554 10.74h7.022zM80.435 25.024h10.631c1.656 0 3.113.236 4.373.706 1.257.467 2.305 1.108 3.15 1.918a7.754 7.754 0 0 1 1.885 2.84 9.56 9.56 0 0 1 .62 3.454c0 1.848-.406 3.462-1.22 4.843-.816 1.378-1.966 2.48-3.452 3.306l6.344 11.391h-7.113l-5.317-10.454h-3.601v10.454h-4.78a1.52 1.52 0 0 1-1.52-1.51V25.024zm10.287 12.842c1.2 0 2.143-.356 2.829-1.067.686-.711 1.027-1.606 1.027-2.686 0-1.168-.341-2.092-1.027-2.774-.686-.683-1.63-1.023-2.83-1.023h-3.986v6.078c0 .813.665 1.472 1.478 1.472h2.509zm27.936 16.34c-2.112 0-4.078-.384-5.893-1.152-1.812-.768-3.384-1.82-4.714-3.156-1.327-1.337-2.37-2.922-3.129-4.757-.756-1.835-1.134-3.805-1.134-5.91 0-2.13.378-4.108 1.134-5.928.759-1.822 1.802-3.4 3.13-4.736 1.329-1.337 2.901-2.39 4.713-3.159 1.815-.768 3.781-1.152 5.893-1.152 2.118 0 4.081.384 5.896 1.152 1.812.768 3.384 1.822 4.714 3.159 1.327 1.336 2.37 2.914 3.13 4.736.755 1.82 1.133 3.797 1.133 5.928 0 2.105-.378 4.075-1.134 5.91-.759 1.835-1.802 3.42-3.129 4.757-1.33 1.336-2.902 2.388-4.714 3.156-1.815.768-3.778 1.152-5.896 1.152zm0-6.057c1.26 0 2.389-.242 3.387-.727a7.654 7.654 0 0 0 2.55-1.962 8.769 8.769 0 0 0 1.61-2.858c.37-1.082.555-2.232.555-3.457a10.58 10.58 0 0 0-.556-3.454 8.53 8.53 0 0 0-1.608-2.837 7.575 7.575 0 0 0-2.55-1.92c-1-.47-2.128-.704-3.388-.704-1.256 0-2.39.234-3.405.704a7.564 7.564 0 0 0-2.574 1.92 8.533 8.533 0 0 0-1.606 2.837 10.581 10.581 0 0 0-.558 3.454c0 1.225.188 2.375.558 3.457a8.763 8.763 0 0 0 1.606 2.858 7.64 7.64 0 0 0 2.574 1.962c1.014.485 2.149.727 3.405.727zM143.81 30.7h-7.739c-.837 0-1.517-.68-1.517-1.513v-4.163h24.987V30.7h-9.215v22.782h-4.996a1.52 1.52 0 0 1-1.52-1.513V30.7zm31.624 23.506c-2.115 0-4.078-.384-5.893-1.152-1.815-.768-3.387-1.82-4.715-3.156-1.33-1.337-2.372-2.922-3.129-4.757-.756-1.835-1.136-3.805-1.136-5.91 0-2.13.38-4.108 1.136-5.928.757-1.822 1.8-3.4 3.13-4.736 1.327-1.337 2.899-2.39 4.714-3.159 1.815-.768 3.778-1.152 5.893-1.152 2.114 0 4.078.384 5.893 1.152 1.814.768 3.387 1.822 4.717 3.159 1.327 1.336 2.37 2.914 3.126 4.736.759 1.82 1.137 3.797 1.137 5.928 0 2.105-.378 4.075-1.137 5.91-.756 1.835-1.8 3.42-3.126 4.757-1.33 1.336-2.903 2.388-4.717 3.156-1.815.768-3.779 1.152-5.893 1.152zm0-6.057c1.256 0 2.386-.242 3.387-.727a7.706 7.706 0 0 0 2.55-1.962 8.763 8.763 0 0 0 1.606-2.858c.373-1.082.558-2.232.558-3.457a10.51 10.51 0 0 0-.558-3.454 8.533 8.533 0 0 0-1.606-2.837 7.626 7.626 0 0 0-2.55-1.92c-1.001-.47-2.13-.704-3.387-.704-1.257 0-2.394.234-3.408.704a7.529 7.529 0 0 0-2.571 1.92 8.533 8.533 0 0 0-1.606 2.837 10.512 10.512 0 0 0-.558 3.454c0 1.225.185 2.375.558 3.457a8.763 8.763 0 0 0 1.606 2.858 7.604 7.604 0 0 0 2.57 1.962c1.015.485 2.152.727 3.409.727zm18.635-23.125h6.13l7.458 13.356 7.288-13.356h6.172l1.327 28.458h-5.017a1.515 1.515 0 0 1-1.517-1.446l-.751-17.155-5.917 11.093H205.9l-6.257-10.966-.728 18.474h-4.581c-.43 0-.8-.158-1.098-.47a1.453 1.453 0 0 1-.42-1.113l1.254-26.875zm31.924 0h19.545v5.632h-13.074v5.546h10.16v5.46h-10.16v6.144h14.016v5.676h-18.967a1.52 1.52 0 0 1-1.52-1.51V25.024zm30.68 5.676h-9.257v-5.676h24.987V30.7h-9.215v22.782h-4.995a1.52 1.52 0 0 1-1.52-1.513V30.7zm26.05-5.676h7.158l10.459 28.458h-5.977a1.5 1.5 0 0 1-1.441-1.035l-1.839-5.492h-10.072l-2.185 6.527h-4.584a1.48 1.48 0 0 1-1.25-.651 1.462 1.462 0 0 1-.174-1.389l9.906-26.418zm19.194 0h6.472v22.74h13.674v5.718h-18.628a1.52 1.52 0 0 1-1.518-1.51V25.024zm19.807 10.78h5.914v5.886h-4.436a1.479 1.479 0 0 1-1.478-1.472v-4.414zm10.998-10.763h6.47v28.445H334.2a1.479 1.479 0 0 1-1.479-1.472V25.041zm10.876 0h6.172l12.38 18.466V25.04h6.386v28.445h-5.872l-12.683-18.809v18.809h-4.904a1.479 1.479 0 0 1-1.479-1.472V25.041zm44.127 12.792h11.011v12.325c-1.486 1.28-3.22 2.269-5.207 2.964-1.984.698-4.248 1.046-6.79 1.046-2.342 0-4.435-.363-6.276-1.087-1.844-.727-3.408-1.742-4.694-3.05-1.285-1.308-2.263-2.873-2.933-4.692-.673-1.82-1.007-3.823-1.007-6.014 0-2.13.355-4.108 1.07-5.927.714-1.82 1.728-3.405 3.042-4.755 1.315-1.35 2.871-2.409 4.67-3.177 1.8-.768 3.8-1.152 6-1.152 2.597 0 4.876.477 6.832 1.43a13.265 13.265 0 0 1 4.865 3.986l-4.372 4.137c-.913-1.08-1.92-1.962-3.02-2.644-1.1-.683-2.448-1.023-4.05-1.023-1.313 0-2.484.242-3.512.724a7.776 7.776 0 0 0-2.615 1.962 8.479 8.479 0 0 0-1.627 2.9 11.043 11.043 0 0 0-.558 3.54c0 1.365.217 2.603.644 3.71.428 1.109 1.027 2.054 1.8 2.838a8.085 8.085 0 0 0 2.719 1.811c1.043.426 2.18.641 3.408.641 1.142 0 2.185-.137 3.126-.407a7.117 7.117 0 0 0 2.53-1.3v-3.582h-3.578c-.816 0-1.478-.66-1.478-1.472v-3.732z" fill="#57585A"/></g></svg>